<?xml version="1.0" standalone="yes"?>
<svg xmlns="http://www.w3.org/2000/svg" width="74" height="74">
<path style="fill:#000000; stroke:none;" d="M0 0L0 28C6.69591 16.1494 12.3361 4.35523 27 1C19.5911 -2.1089 8.02454 0 0 0z"/>
<path style="fill:#ffffff; stroke:none;" d="M27 0.479164C2.01726 5.59554 -7.44347 37.9606 5.54784 58C14.534 71.8613 31.2089 76.7548 47 73.5208C71.9827 68.4044 81.4435 36.0394 68.4522 16C59.466 2.13868 42.7911 -2.75479 27 0.479164z"/>
<path style="fill:#000000; stroke:none;" d="M47 0C58.5549 6.99415 70.3678 13.2334 73 28C76.2096 20.3512 74 8.28781 74 0L47 0M33 3.46374C16.6262 6.33693 3.93042 18.9511 3.10494 36C2.19427 54.8084 20.7451 73.7052 40 70.6744C56.8007 68.0298 70.0462 55.5322 70.8951 38C71.835 18.5869 52.5726 0.0292435 33 3.46374z"/>
<path style="fill:#ffffff; stroke:none;" d="M33.5725 15.0278C31.3323 16.5921 31.1103 19.515 31.0185 22C30.7761 28.5669 31.4136 37.5628 33.3171 43.8519C34.0895 46.4035 37.1189 47.6936 39.4012 45.9676C41.3172 44.5186 41.4049 41.1614 41.7284 39C42.6123 33.0947 44.6805 24.9016 43.338 19.0193C42.3988 14.9046 37.2605 12.4525 33.5725 15.0278z"/>
<path style="fill:#000000; stroke:none;" d="M0 46L0 74L27 74C22.5818 71.3257 17.5891 69.5635 13.5795 66.2114C6.81445 60.5558 4.1569 53.357 0 46M73 46C70.7615 58.5575 59.3853 70.1661 47 73C54.4089 76.1089 65.9755 74 74 74C74 65.7122 76.2096 53.6488 73 46z"/>
<path style="fill:#ffffff; stroke:none;" d="M36.054 49.9707C30.2673 51.2642 31.8994 60.5918 37.9066 59.4576C43.8238 58.3403 41.9653 48.6494 36.054 49.9707z"/>
</svg>
