<?xml version="1.0" standalone="yes"?>
<svg xmlns="http://www.w3.org/2000/svg" width="57" height="80">
<path style="fill:#000000; stroke:none;" d="M0 0L0 21C5.07841 12.1495 9.6181 4.30824 20 1C14.2854 -1.39797 6.16917 0 0 0z"/>
<path style="fill:#ffffff; stroke:none;" d="M20 0.53241C3.91722 4.36284 -3.50492 23.0594 0.789352 38C2.75567 44.8412 8.09588 50.5561 12.4491 56C16.193 60.682 22.5866 73.1321 29.8302 71.7029C35.5462 70.5751 40.3271 61.2018 43.7392 57C48.733 50.8504 55.2519 44.0799 56.6713 36C60.6399 13.4084 42.896 -4.92072 20 0.53241z"/>
<path style="fill:#000000; stroke:none;" d="M37 0C45.1756 5.67498 53.9305 10.298 56 21C58.5005 15.041 57 6.43613 57 0L37 0M28 65C34.1976 58.6071 39.7397 51.027 44.9961 43.8302C47.6458 40.2025 49.694 36.5566 49.9568 32C50.2283 27.2929 50.3359 22.2625 48.0802 18.0008C41.646 5.84395 23.3125 2.98392 13.1852 12.3403C7.03428 18.0229 5.26161 28.0758 7.64892 36C10.971 47.0271 22.3345 55.1874 28 65z"/>
<path style="fill:#ffffff; stroke:none;" d="M26 16.5872C10.7615 20.5554 15.8876 44.1481 30.9992 40.5772C46.4012 36.9377 40.844 12.7217 26 16.5872z"/>
<path style="fill:#000000; stroke:none;" d="M26.3179 25.0471C21.8657 27.8089 26.2009 34.7328 30.6821 31.9529C35.1343 29.1911 30.7991 22.2672 26.3179 25.0471M0 37L0 80L18 80C15.2354 78.015 11.6443 76.905 9.7716 73.8218C7.45644 70.0102 10.1413 66.5329 14 66L11 68C16.3004 78.1316 40.6996 78.1316 46 68L43 66C46.8733 66.4995 49.6103 69.976 47.2176 73.8218C45.3873 76.7636 42.1456 78.0719 39 79C44.2224 81.1914 51.3677 80 57 80L57 37C50.9646 45.9306 44.6994 54.3882 38.1304 62.9992C35.8861 65.9411 33.1066 71.2256 28.9468 71.588C24.3273 71.9904 21.227 66.0895 18.8696 62.9992C12.3006 54.3882 6.03536 45.9306 0 37z"/>
<path style="fill:#ffffff; stroke:none;" d="M43 66C44.1394 67.0154 44.6116 67.3087 46 68C38.2816 77.7671 18.7184 77.7671 11 68C12.3884 67.3087 12.8606 67.0154 14 66C9.37553 66.2171 6.70917 70.4781 9.74537 74.6921C12.4398 78.4318 17.6555 79.7318 22.0039 79.9576C28.7841 80.3097 38.1278 81.3034 44.1258 77.5008C49.323 74.2058 50.4206 66.3483 43 66z"/>
</svg>
