<?xml version="1.0" standalone="yes"?>
<svg xmlns="http://www.w3.org/2000/svg" width="67" height="67">
<path style="fill:#000000; stroke:none;" d="M0 0L0 67L21 67C11.8103 61.0377 7.91316 56.2134 12 45C14.4932 46.6197 17.0296 48.8825 20 49.527C25.0058 50.6132 29.5792 46.6634 34 45C36.141 54.3663 35.6094 64.1407 24 66C28.2151 67.7687 33.4645 67 38 67L67 67L67 0L48 0C51.5474 2.51392 58.2601 3.98216 59.463 8.84568C60.1773 11.7339 56.4938 16.2882 55.5077 19C53.0177 25.8477 50.0686 31.9955 43.9992 36.4313C41.2263 38.458 37.9072 39.3567 35 41.1397C31.6325 43.205 28.8018 46.3092 25 47.6157C20.0953 49.3013 13.9613 45.7751 15.9128 40.0147C18.4196 32.6149 29.4493 28.5147 34 22C30.8783 21.9738 28.0395 21.7243 25 21C23.1606 23.2996 21.2996 25.1606 19 27C19.911 32.4799 15.6823 35.0813 14 40L12 40C10.4579 35.2688 7.63919 30.0683 7.77932 25C8.20561 9.58211 26.1033 4.39438 38 1C34.0414 -0.66111 29.2604 0 25 0L0 0z"/>
<path style="fill:#ffffff; stroke:none;" d="M12 40L14 40C16.4563 35.272 20.5132 32.6319 19 27C21.8206 25.4232 23.4232 23.8206 25 21C28.0408 21.8996 30.8309 21.9919 34 22C28.943 27.1459 20.9031 31.3643 16.8935 37.1736C14.6429 40.4344 14.5471 45.4618 18.3441 47.6674C23.8328 50.8558 29.8584 45.4267 34 42.4931C37.4588 40.0431 41.6026 38.9325 44.9961 36.4313C51.0039 32.0034 53.3219 25.6778 55.8727 19C57.2029 15.5176 61.7347 10.7662 59.3418 7.06481C52.8248 -3.01604 38.915 0.185249 30 3.46991C25.8416 5.00203 20.952 5.82812 17.1844 8.22762C5.19896 15.8609 7.13445 29.0751 12 40M12 45C9.79277 49.5866 8.68057 56.2511 11.7029 60.8117C18.2814 70.7384 34.484 66.7206 35.7963 55C36.1857 51.5217 35.0332 48.2592 34 45C29.7674 45.9918 25.4531 49.9719 21 49.3789C17.7981 48.9525 14.9142 46.2886 12 45z"/>
</svg>
