<?xml version="1.0" standalone="yes"?>
<svg xmlns="http://www.w3.org/2000/svg" width="62" height="62">
<path style="fill:#000000; stroke:none;" d="M0 0L0 62L62 62L62 0L0 0z"/>
<path style="fill:#ffffff; stroke:none;" d="M15 15C12.3467 14.5077 8.90489 13.4238 6.29938 14.6073C-1.64025 18.2135 2.10645 27.334 8 30L8 32C2.10646 34.666 -1.64025 43.7865 6.29938 47.3927C8.90489 48.5762 12.3467 47.4923 15 47C14.4654 49.8811 13.2122 53.8386 15.0285 56.5008C19.672 63.3064 27.4036 60.0593 30 54L32 54C33.027 56.1326 34.0626 58.7424 36.3295 59.8804C39.4834 61.4638 45.9835 58.9042 47.3927 55.7253C48.5609 53.0903 47.4969 49.678 47 47C49.6533 47.4923 53.0951 48.5762 55.7006 47.3927C63.6402 43.7865 59.8935 34.666 54 32L54 30C59.8935 27.334 63.6403 18.2135 55.7006 14.6073C53.0951 13.4238 49.6533 14.5077 47 15C47.4969 12.3219 48.5609 8.90969 47.3927 6.27469C45.9835 3.09578 39.4834 0.536221 36.3295 2.1196C34.0626 3.25764 33.027 5.86743 32 8L30 8C27.4036 1.94072 19.672 -1.30641 15.0285 5.49923C13.2122 8.16139 14.4654 12.1189 15 15z"/>
<path style="fill:#000000; stroke:none;" d="M24 56C28.8374 47.9335 33.1626 47.9335 38 56L44 54C43.5549 52.7676 42.8276 51.2963 42.6613 49.9699C41.4695 40.465 53.1371 44.726 56 38C48.1486 33.2916 48.1816 29.0283 56 24C53.1371 17.2741 41.4695 21.535 42.6613 12.0301C42.8276 10.7037 43.5549 9.23237 44 8C41.8834 7.51675 39.6411 6.77196 37.6319 8.03781C34.9372 9.73567 33.9911 13.3463 30.0895 12.6235C27.0069 12.0523 24.1403 5.17342 20.6273 8.04707C17.8998 10.2782 20.4563 15.182 17.2755 17.9637C14.7382 20.1827 8.97569 18.1688 7.66204 21.2894C6.04364 25.1338 12.3642 27.2447 12.3642 31C12.3642 34.7553 6.04364 36.8662 7.66204 40.7106C9.0356 43.9735 15.357 41.7439 17.9637 44.7245C21.7091 49.0072 17.7041 53.3202 24 56z"/>
<path style="fill:#ffffff; stroke:none;" d="M29 19.5733C14.2711 22.4354 18.3801 45.2676 33 42.4267C47.7289 39.5646 43.6199 16.7324 29 19.5733z"/>
<path style="fill:#000000; stroke:none;" d="M28.0586 25.0324C20.3983 29.0709 26.3991 40.9438 33.9414 36.9676C41.6017 32.9291 35.6009 21.0562 28.0586 25.0324z"/>
</svg>
