<?xml version="1.0" standalone="yes"?>
<svg xmlns="http://www.w3.org/2000/svg" width="54" height="49">
<path style="fill:#000000; stroke:none;" d="M0 0L0 18C5.37887 10.2528 9.97907 2.7874 20 1C14.2853 -1.39797 6.16917 0 0 0z"/>
<path style="fill:#ffffff; stroke:none;" d="M52 13C44.0452 15.1924 34.6631 18.1609 27.1698 21.5625C23.7239 23.1267 22.0369 26.1232 17.9992 26.4715C15.62 26.6767 8.41255 29.7505 6.9213 27.5579C4.36838 23.8042 12.4246 23.5399 14 22.9313C21.9689 19.8527 29.8686 17.1547 38 14C37.266 13.1264 35.9088 11.9113 35.4977 10.7971C34.5364 8.19158 37.1067 5.50113 39.0224 8.35185C40.0085 9.81932 39.3238 11.4784 39 13L49 10C41.178 -0.843231 23.4149 -3.49595 12.0147 3.48225C1.95573 9.63941 -2.28007 25.6023 3.55787 35.9853C6.26348 40.7974 14.2165 46.1371 19.4406 41.3966C22.8222 38.328 22.9509 34.0523 28.0039 32.5139C37.2585 29.6961 54.3409 36.1533 53.7222 20.0015C53.63 17.594 52.7196 15.271 52 13z"/>
<path style="fill:#000000; stroke:none;" d="M34 0C42.2443 4.65822 49.8669 8.18814 53 18C55.1914 12.7776 54 5.63224 54 0L34 0z"/>
<path style="fill:#e5eddf; stroke:none;" d="M23.6667 3.33333C23.2222 3.77779 24.2778 3.72222 24.3333 3.66667C24.7778 3.22223 23.7222 3.27777 23.6667 3.33333z"/>
<path style="fill:#bfffbf; stroke:none;" d="M10 4L11 5L10 4z"/>
<path style="fill:#d4e2cb; stroke:none;" d="M21 4L22 5L21 4z"/>
<path style="fill:#598f34; stroke:none;" d="M22.6034 5.08179C20.1317 6.87167 22.9181 10.7131 25.3966 8.91821C27.8683 7.12834 25.0819 3.28693 22.6034 5.08179z"/>
<path style="fill:#b2cca2; stroke:none;" d="M20.3333 6.66667C20.2778 6.72222 20.2222 7.77778 20.6667 7.33333C20.7222 7.27777 20.7778 6.22223 20.3333 6.66667z"/>
<path style="fill:#c1d5b3; stroke:none;" d="M27.3333 6.66667C27.2778 6.72222 27.2222 7.77778 27.6667 7.33333C27.7222 7.27777 27.7778 6.22223 27.3333 6.66667z"/>
<path style="fill:#a9c595; stroke:none;" d="M35 6L36 7L35 6z"/>
<path style="fill:#6d9c4c; stroke:none;" d="M36 6C37.2484 6.6848 37.5484 6.74879 39 7C37.7516 6.3152 37.4516 6.25121 36 6z"/>
<path style="fill:#a3c08e; stroke:none;" d="M34 7L35 8L34 7z"/>
<path style="fill:#598f34; stroke:none;" d="M34 8C36.3026 12.1489 39.217 11.6773 40 7C37.7951 7.09414 36.1059 7.35621 34 8z"/>
<path style="fill:#cddfc2; stroke:none;" d="M6 8L7 9L6 8z"/>
<path style="fill:#e3ecdc; stroke:none;" d="M33.3333 8.66667C33.2778 8.72222 33.2222 9.77778 33.6667 9.33333C33.7222 9.27777 33.7778 8.22222 33.3333 8.66667z"/>
<path style="fill:#b2caa0; stroke:none;" d="M40.3333 8.66667C40.2778 8.72223 40.2222 9.77777 40.6667 9.33333C40.7222 9.27777 40.7778 8.22222 40.3333 8.66667z"/>
<path style="fill:#a5c394; stroke:none;" d="M5 9L6 10L5 9z"/>
<path style="fill:#b5cda5; stroke:none;" d="M21 9L22 10L21 9z"/>
<path style="fill:#c1d5b4; stroke:none;" d="M26 9L27 10L26 9z"/>
<path style="fill:#7fa55f; stroke:none;" d="M4 10L5 11L4 10z"/>
<path style="fill:#b8cfa8; stroke:none;" d="M11 10C12.2483 10.6848 12.5484 10.7488 14 11C12.7516 10.3152 12.4516 10.2512 11 10z"/>
<path style="fill:#c5d8b9; stroke:none;" d="M23.6667 10.3333C23.2222 10.7778 24.2778 10.7222 24.3333 10.6667C24.7778 10.2222 23.7222 10.2778 23.6667 10.3333z"/>
<path style="fill:#98b980; stroke:none;" d="M34 10L35 11L34 10z"/>
<path style="fill:#d9e6d1; stroke:none;" d="M46.6667 10.3333C46.2222 10.7778 47.2778 10.7222 47.3333 10.6667C47.7778 10.2222 46.7222 10.2778 46.6667 10.3333z"/>
<path style="fill:#a6c493; stroke:none;" d="M48 10L49 11L48 10z"/>
<path style="fill:#578d31; stroke:none;" d="M49 10C41.9595 13.2778 34.2762 16.2279 27 18.9537C21.6028 20.9756 17.8368 19.9638 14 25C21.1617 26.3242 22.8173 23.5994 29.0147 20.9915C33.2123 19.2251 37.7462 18.2179 42 16.5718C45.1222 15.3635 49.9062 13.9404 49 10z"/>
<path style="fill:#cdddc1; stroke:none;" d="M4 11L5 12L4 11z"/>
<path style="fill:#9abb83; stroke:none;" d="M10 11L11 12L10 11z"/>
<path style="fill:#568d30; stroke:none;" d="M11.6034 12.0818C9.49994 13.608 11.2531 17.1334 13.7215 15.8287C16.6015 14.3064 14.2177 10.1848 11.6034 12.0818z"/>
<path style="fill:#96b87f; stroke:none;" d="M35 11L36 12L35 11z"/>
<path style="fill:#c9dbbe; stroke:none;" d="M39 11L40 12L39 11z"/>
<path style="fill:#9ebe89; stroke:none;" d="M44.6667 11.3333C44.2222 11.7778 45.2778 11.7222 45.3333 11.6667C45.7778 11.2222 44.7222 11.2778 44.6667 11.3333z"/>
<path style="fill:#8eb577; stroke:none;" d="M3 12L4 13L3 12z"/>
<path style="fill:#a1c08c; stroke:none;" d="M9 12L9 15C9.6961 13.4463 9.6961 13.5537 9 12z"/>
<path style="fill:#e4eddf; stroke:none;" d="M36 12C37.1394 13.0154 37.6116 13.3087 39 14C38.0198 12.2167 38.0924 12.4057 36 12z"/>
<path style="fill:#73a053; stroke:none;" d="M42.6667 12.3333C42.2222 12.7778 43.2778 12.7222 43.3333 12.6667C43.7778 12.2222 42.7222 12.2778 42.6667 12.3333z"/>
<path style="fill:#8eb575; stroke:none;" d="M50 12L51 13L50 12z"/>
<path style="fill:#80aa65; stroke:none;" d="M2.33333 13.6667C2.27779 13.7222 2.22222 14.7778 2.66667 14.3333C2.72223 14.2778 2.77777 13.2222 2.33333 13.6667z"/>
<path style="fill:#b6cea6; stroke:none;" d="M39 13L40 14L39 13z"/>
<path style="fill:#85ad6b; stroke:none;" d="M48 13L49 14L48 13z"/>
<path style="fill:#ccddc1; stroke:none;" d="M49 13L50 14L49 13z"/>
<path style="fill:#cedec3; stroke:none;" d="M36 14L37 15L36 14z"/>
<path style="fill:#cadbbe; stroke:none;" d="M47 14L48 15L47 14z"/>
<path style="fill:#659642; stroke:none;" d="M1.33333 15.6667C1.27777 15.7222 1.22223 16.7778 1.66667 16.3333C1.72222 16.2778 1.77778 15.2222 1.33333 15.6667z"/>
<path style="fill:#bed3b0; stroke:none;" d="M2 15L3 16L2 15z"/>
<path style="fill:#afca9e; stroke:none;" d="M15 15L16 16L15 15z"/>
<path style="fill:#aec89c; stroke:none;" d="M34 15L35 16L34 15z"/>
<path style="fill:#92b67a; stroke:none;" d="M44 15L45 16L44 15z"/>
<path style="fill:#c0d5b3; stroke:none;" d="M10 16L11 17L10 16z"/>
<path style="fill:#a2c18e; stroke:none;" d="M14 16L15 17L14 16z"/>
<path style="fill:#cadbbe; stroke:none;" d="M31 16L32 17L31 16z"/>
<path style="fill:#8eb375; stroke:none;" d="M32 16L33 17L32 16z"/>
<path style="fill:#e0eada; stroke:none;" d="M42.6667 16.3333C42.2222 16.7778 43.2778 16.7222 43.3333 16.6667C43.7778 16.2222 42.7222 16.2778 42.6667 16.3333z"/>
<path style="fill:#b4cda4; stroke:none;" d="M1.33333 17.6667C1.27779 17.7222 1.22222 18.7778 1.66667 18.3333C1.72223 18.2778 1.77777 17.2222 1.33333 17.6667z"/>
<path style="fill:#c6d8b9; stroke:none;" d="M29 17L30 18L29 17z"/>
<path style="fill:#99bb83; stroke:none;" d="M39 17L40 18L39 17z"/>
<path style="fill:#629542; stroke:none;" d="M0 18L0 21C0.696102 19.4463 0.696099 19.5537 0 18z"/>
<path style="fill:#cdddc2; stroke:none;" d="M27 18L28 19L27 18z"/>
<path style="fill:#82ab67; stroke:none;" d="M28 18L29 19L28 18z"/>
<path style="fill:#99ba83; stroke:none;" d="M36 18L37 19L36 18z"/>
<path style="fill:#e1ebdb; stroke:none;" d="M1.33333 19.6667C1.27778 19.7222 1.22222 20.7778 1.66667 20.3333C1.72223 20.2778 1.77778 19.2222 1.33333 19.6667z"/>
<path style="fill:#a6c392; stroke:none;" d="M19 19L20 20L19 19z"/>
<path style="fill:#72a052; stroke:none;" d="M20.6667 19.3333C20.2222 19.7778 21.2778 19.7222 21.3333 19.6667C21.7778 19.2222 20.7222 19.2778 20.6667 19.3333z"/>
<path style="fill:#aac698; stroke:none;" d="M22 19L23 20L22 19z"/>
<path style="fill:#97b980; stroke:none;" d="M26 19L27 20L26 19z"/>
<path style="fill:#8eb375; stroke:none;" d="M33 19L34 20L33 19z"/>
<path style="fill:#c2d6b5; stroke:none;" d="M34 19L35 20L34 19z"/>
<path style="fill:#abc799; stroke:none;" d="M17 20L18 21L17 20z"/>
<path style="fill:#c8dabc; stroke:none;" d="M30.6667 20.3333C30.2222 20.7778 31.2778 20.7222 31.3333 20.6667C31.7778 20.2222 30.7222 20.2778 30.6667 20.3333z"/>
<path style="fill:#85ac6b; stroke:none;" d="M0.333333 21.6667C0.277781 21.7222 0.222224 22.7778 0.666667 22.3333C0.722227 22.2778 0.777776 21.2222 0.333333 21.6667z"/>
<path style="fill:#89b06f; stroke:none;" d="M16 21L17 22L16 21z"/>
<path style="fill:#7ea861; stroke:none;" d="M15 22L16 23L15 22z"/>
<path style="fill:#afc99b; stroke:none;" d="M0 23L0 28C0.829893 25.9695 0.829894 25.0305 0 23z"/>
<path style="fill:#6e9d4f; stroke:none;" d="M7 23C8.24835 23.6848 8.54842 23.7488 10 24C8.75165 23.3152 8.45158 23.2512 7 23z"/>
<path style="fill:#c0d4b2; stroke:none;" d="M10 23L11 24L10 23z"/>
<path style="fill:#80a963; stroke:none;" d="M14 23L15 24L14 23z"/>
<path style="fill:#b4cda3; stroke:none;" d="M24 23L25 24L24 23z"/>
<path style="fill:#9dbe88; stroke:none;" d="M53.3333 23.6667C53.2778 23.7222 53.2222 24.7778 53.6667 24.3333C53.7222 24.2778 53.7778 23.2222 53.3333 23.6667z"/>
<path style="fill:#598f34; stroke:none;" d="M6 24C6.95728 29.7314 10.8159 28.811 14 25C11.3142 24.4992 8.73005 24.1174 6 24z"/>
<path style="fill:#96b87f; stroke:none;" d="M11 24L12 25L11 24z"/>
<path style="fill:#c6d8b9; stroke:none;" d="M12 24L13 25L12 24z"/>
<path style="fill:#81aa66; stroke:none;" d="M13 24L14 25L13 24z"/>
<path style="fill:#96b87e; stroke:none;" d="M5 25L5 28C5.6961 26.4463 5.6961 26.5537 5 25z"/>
<path style="fill:#72a052; stroke:none;" d="M14 25C15.2484 25.6848 15.5484 25.7488 17 26C15.7516 25.3152 15.4516 25.2512 14 25z"/>
<path style="fill:#598f34; stroke:none;" d="M53 25C52.0642 26.7839 51.2709 28.3409 49.7724 29.75C42.5331 36.5572 34.1063 30.3716 26.0579 33.6034C22.0441 35.2151 21.9921 39.9742 18.7724 42.3927C15.9155 44.5387 12.2266 43.4053 9 43C17.8777 51.3171 23.1501 38.8713 31 36.5139C36.5939 34.834 42.4453 36.7848 47.9954 34.2461C52.1017 32.3679 54.8157 29.4534 53 25z"/>
<path style="fill:#bcd2ad; stroke:none;" d="M13 26L14 27L13 26z"/>
<path style="fill:#9dbd87; stroke:none;" d="M17 26C18.769 26.7789 20.0359 26.9124 22 27C20.231 26.2211 18.9641 26.0876 17 26z"/>
<path style="fill:#b9d0aa; stroke:none;" d="M52 26L53 27L52 26z"/>
<path style="fill:#78a45d; stroke:none;" d="M0 28L0 31C0.6961 29.4463 0.696099 29.5537 0 28z"/>
<path style="fill:#99ba82; stroke:none;" d="M6 28L7 29L6 28z"/>
<path style="fill:#96b87f; stroke:none;" d="M51 28L52 29L51 28z"/>
<path style="fill:#abc798; stroke:none;" d="M7 29C8.24835 29.6848 8.54842 29.7488 10 30C8.75165 29.3152 8.45158 29.2512 7 29z"/>
<path style="fill:#a4c290; stroke:none;" d="M50 29L51 30L50 29z"/>
<path style="fill:#c8dabc; stroke:none;" d="M1.33333 30.6667C1.27778 30.7222 1.22222 31.7778 1.66667 31.3333C1.72222 31.2778 1.77778 30.2222 1.33333 30.6667z"/>
<path style="fill:#9ebd88; stroke:none;" d="M49 30L50 31L49 30z"/>
<path style="fill:#000000; stroke:none;" d="M0 31L0 49L20 49C16.6809 47.1246 13.0498 46.022 10.0039 43.6096C5.57952 40.1055 3.13367 35.5134 0 31z"/>
<path style="fill:#d1e0c7; stroke:none;" d="M47 31L48 32L47 31z"/>
<path style="fill:#82ab66; stroke:none;" d="M48 31L49 32L48 31z"/>
<path style="fill:#8ab070; stroke:none;" d="M52 31L48 34C50.4715 34.716 53.0608 33.8754 52 31z"/>
<path style="fill:#000000; stroke:none;" d="M53 31C50.2746 39.5351 42.8644 46.4189 34 48C39.7147 50.398 47.8308 49 54 49C54 43.3678 55.1914 36.2224 53 31z"/>
<path style="fill:#9ebc87; stroke:none;" d="M1 32L2 33L1 32z"/>
<path style="fill:#c3d7b6; stroke:none;" d="M26 32C27.2484 32.6848 27.5484 32.7488 29 33C27.7516 32.3152 27.4516 32.2512 26 32z"/>
<path style="fill:#8fb376; stroke:none;" d="M29 32C30.506 32.683 31.3148 32.8259 33 33C31.494 32.317 30.6852 32.1741 29 32z"/>
<path style="fill:#b9d0a9; stroke:none;" d="M33 32C34.2484 32.6848 34.5484 32.7488 36 33C34.7517 32.3152 34.4516 32.2512 33 32z"/>
<path style="fill:#ebf2e7; stroke:none;" d="M36 32C38.8897 33.2129 41.8741 32.9983 45 33C42.1103 31.7871 39.1259 32.0017 36 32z"/>
<path style="fill:#b9d0ab; stroke:none;" d="M45 32L46 33L45 32z"/>
<path style="fill:#66994c; stroke:none;" d="M1 33L2 34L1 33z"/>
<path style="fill:#76a257; stroke:none;" d="M39 33C40.769 33.7789 42.0359 33.9124 44 34C42.231 33.2211 40.9641 33.0876 39 33z"/>
<path style="fill:#b3cda4; stroke:none;" d="M2 34L3 35L2 34z"/>
<path style="fill:#b8cfa8; stroke:none;" d="M23 34L24 35L23 34z"/>
<path style="fill:#aec89c; stroke:none;" d="M16 47C21.9972 48.7441 25.2069 42.4148 30 40.0278C36.9791 36.5521 47.464 42.2528 52 34C48.2916 35.1506 44.8921 37.2934 41 37.8117C37.1159 38.329 32.7343 37.2282 29 38.6034C24.139 40.3934 20.961 45.0534 16 47z"/>
<path style="fill:#72a559; stroke:none;" d="M2 35L3 36L2 35z"/>
<path style="fill:#d4e2cb; stroke:none;" d="M22 35L23 36L22 35z"/>
<path style="fill:#7aa65e; stroke:none;" d="M29 36C34.1998 38.1819 42.6575 37.5792 48 36C42.8202 34.1422 34.6673 36 29 36z"/>
<path style="fill:#a3c18e; stroke:none;" d="M3 36L4 37L3 36z"/>
<path style="fill:#cddcc1; stroke:none;" d="M4 37L5 38L4 37z"/>
<path style="fill:#bbd1ac; stroke:none;" d="M21 37L21 40C21.6961 38.4463 21.6961 38.5537 21 37z"/>
<path style="fill:#98ba81; stroke:none;" d="M28 37C32.7238 38.9822 38.9098 38 44 38C39.2762 36.0178 33.0902 37 28 37z"/>
<path style="fill:#6c9f4c; stroke:none;" d="M4 38L5 39L4 38z"/>
<path style="fill:#86ae6b; stroke:none;" d="M23 43C25.1357 41.4511 26.4511 40.1357 28 38C25.3134 39.3241 24.3241 40.3134 23 43z"/>
<path style="fill:#c1d5b3; stroke:none;" d="M19 48C24.7711 48.086 26.8828 42.4898 32 40.6034C37.129 38.7127 44.4934 39.6959 50 39C46.9638 37.8149 44.2053 38.6919 41 38.9105C37.4639 39.1516 33.3853 38.3568 30 39.6034C25.8856 41.1185 22.3692 45.2437 19 48z"/>
<path style="fill:#77a155; stroke:none;" d="M5 39L6 40L5 39z"/>
<path style="fill:#d8e5d0; stroke:none;" d="M22 49C32.6238 49 42.268 48.3322 49 39C37.7327 40.424 29.2632 38.6969 22 49z"/>
<path style="fill:#749f54; stroke:none;" d="M6 40L7 41L6 40z"/>
<path style="fill:#659642; stroke:none;" d="M7 41L8 42L7 41z"/>
<path style="fill:#b6cea6; stroke:none;" d="M8 41L9 42L8 41z"/>
<path style="fill:#c3d7b5; stroke:none;" d="M20 41L21 42L20 41z"/>
<path style="fill:#5a8e34; stroke:none;" d="M8 42L9 43L8 42z"/>
<path style="fill:#84ac69; stroke:none;" d="M9 42L10 43L9 42z"/>
<path style="fill:#c6d8b9; stroke:none;" d="M19 42L20 43L19 42z"/>
<path style="fill:#dce8d4; stroke:none;" d="M12 43C14.0521 43.8742 15.7472 43.9528 18 44C15.9479 43.1258 14.2528 43.0472 12 43z"/>
<path style="fill:#90b477; stroke:none;" d="M18 43L19 44L18 43z"/>
<path style="fill:#86ae6b; stroke:none;" d="M21 43L21 45C22.6352 44.4549 22.4549 44.6352 23 43L21 43z"/>
<path style="fill:#80aa64; stroke:none;" d="M18 45C19.2484 45.6848 19.5484 45.7488 21 46C19.7516 45.3152 19.4516 45.2512 18 45z"/>
<path style="fill:#7ca75e; stroke:none;" d="M14 46C15.506 46.683 16.3148 46.8259 18 47C16.494 46.317 15.6852 46.1741 14 46z"/>
</svg>
